<!--?xml version="1.0" standalone="no"?-->
              <svg id="sw-js-blob-svg" viewBox="0 0 100 100" xmlns="http://www.w3.org/2000/svg" version="1.1">
                    <defs> 
                        <linearGradient id="sw-gradient" x1="0" x2="1" y1="1" y2="0">
                            <stop id="stop1" stop-color="rgba(248, 117, 55, 1)" offset="0%"></stop>
                            <stop id="stop2" stop-color="rgba(251, 168, 31, 1)" offset="100%"></stop>
                        </linearGradient>
                    </defs>
                <path fill="url(#sw-gradient)" d="M17.6,-30C23.7,-27,29.9,-24,31.9,-19C33.9,-14,31.7,-7,30.3,-0.8C29,5.4,28.6,10.8,26.5,15.8C24.5,20.8,20.9,25.3,16.2,27.9C11.5,30.4,5.7,31.1,0,31.1C-5.7,31.1,-11.5,30.4,-16.5,28C-21.5,25.7,-25.9,21.6,-29.1,16.6C-32.2,11.6,-34.2,5.8,-35.7,-0.8C-37.1,-7.5,-38.1,-15,-35.7,-21.3C-33.3,-27.6,-27.5,-32.6,-21,-35.3C-14.5,-38,-7.3,-38.3,-0.7,-37C5.8,-35.8,11.6,-32.9,17.6,-30Z" width="100%" height="100%" transform="translate(50 50)" stroke-width="0" style="transition: all 0.3s ease 0s;" stroke="url(#sw-gradient)"></path>
              </svg>