<!--?xml version="1.0" standalone="no"?-->
              <svg id="sw-js-blob-svg" viewBox="0 0 100 100" xmlns="http://www.w3.org/2000/svg" version="1.1">
                    <defs> 
                        <linearGradient id="sw-gradient" x1="1" x2="2" y1="1" y2="0">
                            <stop id="stop1" stop-color="#3202f0" offset="0%"></stop>
                            <stop id="stop2" stop-color="rgba(251, 168, 31, 1)" offset="100%"></stop>
                        </linearGradient>
                    </defs>
                <path fill="url(#sw-gradient)" d="M23.7,-40.7C30.8,-37,36.6,-30.7,38.4,-23.6C40.2,-16.4,37.8,-8.2,37.1,-0.4C36.4,7.4,37.3,14.7,34.2,19.6C31.2,24.5,24.1,27,17.7,28.8C11.3,30.6,5.7,31.8,0.6,30.8C-4.5,29.8,-9,26.6,-12.8,23.2C-16.5,19.9,-19.6,16.5,-23.7,12.6C-27.9,8.7,-33.2,4.4,-36.4,-1.9C-39.6,-8.1,-40.8,-16.1,-36.6,-20.1C-32.5,-24.1,-23.1,-24,-16.2,-27.8C-9.2,-31.6,-4.6,-39.4,1.9,-42.6C8.3,-45.8,16.6,-44.5,23.7,-40.7Z" width="100%" height="100%" transform="translate(50 50)" stroke-width="0" style="transition: all 0.3s ease 0s;" stroke="url(#sw-gradient)"></path>
              </svg>